<svg width="30" height="30" viewBox="0 0 30 30" fill="none" xmlns="http://www.w3.org/2000/svg">
<path d="M0 1C0 0.734784 0.10536 0.48043 0.292902 0.292893C0.480444 0.105357 0.734806 0 1.00003 0H4.00012C4.22319 6.1623e-05 4.43984 0.0747014 4.6156 0.212049C4.79137 0.349398 4.91617 0.541568 4.97015 0.758L5.78018 4H29.0009C29.1477 4.00014 29.2927 4.03261 29.4256 4.0951C29.5585 4.1576 29.676 4.24859 29.7697 4.36161C29.8634 4.47463 29.9311 4.6069 29.968 4.74904C30.0048 4.89117 30.0099 5.03967 29.9829 5.184L26.9828 21.184C26.9399 21.4132 26.8183 21.6201 26.639 21.7691C26.4597 21.9181 26.2339 21.9998 26.0008 22H8.00025C7.7671 21.9998 7.54136 21.9181 7.36205 21.7691C7.18273 21.6201 7.06112 21.4132 7.01822 21.184L4.02012 5.214L3.2201 2H1.00003C0.734806 2 0.480444 1.89464 0.292902 1.70711C0.10536 1.51957 0 1.26522 0 1ZM6.20419 6L8.83027 20H25.1708L27.7969 6H6.20419ZM10.0003 22C8.93941 22 7.92196 22.4214 7.17179 23.1716C6.42163 23.9217 6.00019 24.9391 6.00019 26C6.00019 27.0609 6.42163 28.0783 7.17179 28.8284C7.92196 29.5786 8.93941 30 10.0003 30C11.0612 30 12.0787 29.5786 12.8288 28.8284C13.579 28.0783 14.0004 27.0609 14.0004 26C14.0004 24.9391 13.579 23.9217 12.8288 23.1716C12.0787 22.4214 11.0612 22 10.0003 22ZM24.0007 22C22.9398 22 21.9224 22.4214 21.1722 23.1716C20.4221 23.9217 20.0006 24.9391 20.0006 26C20.0006 27.0609 20.4221 28.0783 21.1722 28.8284C21.9224 29.5786 22.9398 30 24.0007 30C25.0616 30 26.0791 29.5786 26.8293 28.8284C27.5794 28.0783 28.0009 27.0609 28.0009 26C28.0009 24.9391 27.5794 23.9217 26.8293 23.1716C26.0791 22.4214 25.0616 22 24.0007 22ZM10.0003 24C10.5308 24 11.0395 24.2107 11.4146 24.5858C11.7896 24.9609 12.0004 25.4696 12.0004 26C12.0004 26.5304 11.7896 27.0391 11.4146 27.4142C11.0395 27.7893 10.5308 28 10.0003 28C9.46986 28 8.96114 27.7893 8.58605 27.4142C8.21097 27.0391 8.00025 26.5304 8.00025 26C8.00025 25.4696 8.21097 24.9609 8.58605 24.5858C8.96114 24.2107 9.46986 24 10.0003 24ZM24.0007 24C24.5312 24 25.0399 24.2107 25.415 24.5858C25.7901 24.9609 26.0008 25.4696 26.0008 26C26.0008 26.5304 25.7901 27.0391 25.415 27.4142C25.0399 27.7893 24.5312 28 24.0007 28C23.4703 28 22.9616 27.7893 22.5865 27.4142C22.2114 27.0391 22.0007 26.5304 22.0007 26C22.0007 25.4696 22.2114 24.9609 22.5865 24.5858C22.9616 24.2107 23.4703 24 24.0007 24V24Z" fill="#5DC5CC"/>
</svg>
