<?xml version="1.0" standalone="no"?>
<!DOCTYPE svg PUBLIC "-//W3C//DTD SVG 20010904//EN"
 "http://www.w3.org/TR/2001/REC-SVG-20010904/DTD/svg10.dtd">
<svg version="1.0" xmlns="http://www.w3.org/2000/svg"
 width="1352.000000pt" height="313.000000pt" viewBox="0 0 1352.000000 313.000000"
 preserveAspectRatio="xMidYMid meet">

<g transform="translate(0.000000,313.000000) scale(0.100000,-0.100000)"
fill="#000000" stroke="none">
<path d="M47 3117 c-3 -8 137 -559 311 -1226 l317 -1211 189 2 189 3 223 795
c123 437 244 871 270 963 26 94 50 163 54 155 4 -7 126 -442 271 -966 l264
-952 189 2 189 3 318 1209 c174 665 315 1215 312 1222 -4 11 -45 14 -197 14
l-192 0 -213 -921 c-117 -506 -216 -932 -220 -946 -5 -19 -74 217 -259 883
-139 500 -257 926 -263 947 l-10 37 -193 0 c-146 0 -195 -3 -198 -12 -3 -7
-121 -430 -263 -940 -143 -510 -261 -926 -263 -923 -3 2 -102 424 -221 937
l-217 933 -191 3 c-154 2 -192 0 -196 -11z"/>
<path d="M9162 3118 c-19 -19 -17 -2411 2 -2427 9 -8 63 -11 167 -9 l154 3 0
1220 0 1220 -155 3 c-113 2 -159 -1 -168 -10z"/>
<path d="M7855 2519 c-139 -20 -269 -79 -363 -165 -75 -68 -118 -134 -149
-232 -21 -66 -24 -92 -21 -182 3 -91 7 -113 32 -164 16 -32 52 -81 80 -110 94
-94 219 -145 567 -230 382 -94 439 -129 439 -270 0 -111 -62 -182 -204 -232
-107 -39 -318 -35 -429 6 -66 25 -140 88 -168 142 -17 33 -48 149 -49 181 0 4
-71 6 -157 5 l-158 -3 1 -67 c1 -139 91 -331 202 -429 126 -112 348 -168 612
-155 238 11 393 69 516 191 252 252 225 664 -52 803 -85 42 -219 84 -469 146
-121 30 -238 62 -260 72 -103 43 -165 116 -165 195 0 54 39 120 91 155 110 74
373 72 510 -3 71 -38 118 -111 134 -206 l6 -38 157 3 157 3 3 36 c2 20 -4 67
-13 104 -42 181 -177 332 -359 400 -127 48 -337 66 -491 44z"/>
<path d="M4045 2505 c-323 -60 -558 -292 -653 -644 -24 -89 -26 -112 -26 -311
-1 -194 1 -224 22 -305 13 -49 46 -137 74 -194 45 -93 61 -115 147 -200 166
-166 292 -221 523 -229 151 -5 231 5 348 44 195 65 361 228 450 440 17 42 32
95 33 118 l2 41 -162 3 c-129 2 -163 0 -163 -11 0 -29 -71 -156 -114 -204
-170 -188 -541 -184 -682 8 -66 90 -107 202 -120 332 l-7 67 626 0 c572 0 627
1 642 17 15 14 16 33 10 147 -11 227 -40 367 -103 493 -65 132 -164 231 -302
302 -179 92 -360 121 -545 86z m256 -295 c190 -36 301 -175 344 -432 l6 -38
-461 0 -460 0 0 33 c0 49 27 144 58 201 59 109 183 210 288 235 54 13 161 13
225 1z"/>
<path d="M5967 2510 c-213 -36 -403 -150 -470 -282 -37 -73 -69 -205 -65 -270
l3 -53 152 -3 151 -3 12 58 c27 134 80 202 189 245 81 32 285 32 386 1 132
-42 184 -111 185 -243 0 -86 -19 -129 -69 -154 -17 -9 -145 -30 -312 -51 -320
-40 -398 -58 -513 -118 -191 -99 -280 -251 -279 -477 0 -162 45 -273 154 -380
204 -201 575 -215 869 -32 41 25 96 66 121 89 l46 43 22 -60 c44 -120 118
-170 261 -177 61 -3 104 1 155 14 l70 18 3 114 c3 138 0 145 -74 135 -64 -8
-99 0 -110 23 -5 10 -11 284 -14 608 -5 588 -5 590 -28 647 -27 67 -101 152
-171 197 -68 44 -195 88 -304 106 -97 16 -289 18 -370 5z m543 -1057 c-1 -248
-55 -365 -210 -456 -137 -80 -349 -107 -454 -59 -115 52 -159 117 -159 231 1
86 24 141 81 191 61 54 158 83 389 115 99 14 214 36 255 49 40 13 79 24 86 25
9 1 12 -25 12 -96z"/>
<path d="M10575 2505 c-323 -60 -558 -292 -653 -644 -24 -89 -26 -112 -26
-311 -1 -194 1 -224 22 -305 13 -49 46 -137 74 -194 45 -93 61 -115 147 -200
166 -166 292 -221 523 -229 151 -5 231 5 348 44 195 65 361 228 450 440 17 42
32 95 33 118 l2 41 -162 3 c-129 2 -163 0 -163 -11 0 -29 -71 -156 -114 -204
-170 -188 -541 -184 -682 8 -66 90 -107 202 -120 332 l-7 67 626 0 c572 0 627
1 642 17 15 14 16 33 10 147 -11 227 -40 367 -103 493 -65 132 -164 231 -302
302 -179 92 -360 121 -545 86z m256 -295 c190 -36 301 -175 344 -432 l6 -38
-461 0 -460 0 0 33 c0 49 27 144 58 201 59 109 183 210 288 235 54 13 161 13
225 1z"/>
<path d="M11777 2474 c-4 -4 -7 -15 -7 -24 0 -9 144 -418 320 -909 l320 -892
-62 -152 c-97 -234 -140 -263 -332 -222 -51 11 -73 12 -83 4 -10 -9 -13 -46
-13 -145 l0 -134 222 0 223 0 51 35 c65 45 101 96 174 247 128 266 259 608
599 1558 166 463 217 617 209 627 -8 10 -50 13 -182 11 l-170 -3 -223 -675
c-123 -371 -226 -682 -229 -690 -3 -8 -108 296 -233 675 l-227 690 -175 3
c-96 1 -178 -1 -182 -4z"/>
</g>
</svg>
